<svg width="10" height="12" viewBox="0 0 10 12" fill="none" xmlns="http://www.w3.org/2000/svg">
<path d="M0.214335 7.13276L7.06244 2.91355C7.21582 2.81954 7.41218 2.82854 7.55578 2.93955C8.2064 3.44057 8.78766 3.9486 9.17549 4.37562C9.17549 4.37562 9.50959 4.71764 9.65418 4.93465C9.88766 5.23066 10 5.61768 10 5.9937C10 6.41572 9.87691 6.81474 9.63171 7.13376C9.57602 7.19076 9.36403 7.44177 9.16377 7.64678C7.99539 8.92285 4.94549 11.031 3.34141 11.67C3.10793 11.773 2.48466 11.988 2.16131 12C1.84967 12 1.54879 11.932 1.25962 11.783C0.90403 11.578 0.625612 11.26 0.469307 10.8829C0.368686 10.6209 0.213358 9.83489 0.213358 9.81189C0.112736 9.25086 0.0375146 8.46282 0.00039219 7.54278C-0.00644615 7.37777 0.0765909 7.21776 0.214335 7.13276Z" fill="#E9910F"/>
<path opacity="0.4" d="M0.672276 4.86003C0.370413 5.04704 -0.00960379 4.80803 0.0050498 4.44901C0.0411953 3.60697 0.103717 2.86493 0.179916 2.31291C0.191639 2.3009 0.346967 1.32186 0.525741 0.990839C0.837374 0.375808 1.44892 -0.000210762 2.10637 -0.000210762H2.16108C2.58506 0.0107899 3.48674 0.386808 3.48674 0.40981C3.941 0.598819 4.53399 0.918835 5.1719 1.30385C5.45912 1.47786 5.46595 1.90488 5.17874 2.08189L0.672276 4.86003Z" fill="#E8BA10"/>
</svg>
